<svg xmlns="http://www.w3.org/2000/svg" viewBox="0 0 485.25 87.38"><defs><style>.cls-1,.cls-3{fill:none;stroke:#1d1d1b;stroke-miterlimit:10;}.cls-1{stroke-width:2px;}.cls-2{fill:#1d1d1b;}</style></defs><title>logo_ICDCVS</title><g><g><polygon class="cls-1" points="55.74 18.43 47.83 18.43 47.83 66.25 55.74 66.25 55.74 80.67 110.13 80.67 110.13 66.25 63.64 66.25 63.64 18.43 110.13 18.43 110.13 4 55.74 4 55.74 18.43"/><polygon class="cls-1" points="188.24 18.43 188.24 66.25 188.24 80.67 242.64 80.67 242.64 66.25 204.05 66.25 204.05 18.43 242.64 18.43 242.64 4 188.24 4 188.24 18.43"/><polygon class="cls-1" points="31.83 18.43 47.83 18.43 47.83 4 1 4 1 18.43 16.02 18.43 16.02 66.25 1 66.25 1 80.67 47.83 80.67 47.83 66.25 31.83 66.25 31.83 18.43"/><polygon class="cls-1" points="391.23 18.43 391.23 4 336.83 4 336.83 18.43 336.83 36.96 336.83 51.04 336.83 51.38 375.42 51.38 375.42 66.87 336.83 66.87 336.83 81.3 391.23 81.3 391.23 66.87 391.23 51.38 391.23 36.96 375.42 36.96 352.64 36.96 352.64 18.43 391.23 18.43"/><polygon class="cls-1" points="172.92 18.43 157.11 18.43 157.11 34.91 165.01 34.91 165.01 50.71 157.11 50.71 157.11 66.25 133.85 66.25 133.85 18.43 157.11 18.43 157.11 4 118.07 4 118.07 18.43 118.04 18.43 118.04 66.25 118.07 66.25 118.07 80.67 157.11 80.67 157.11 66.87 172.92 66.87 172.92 50.71 180.82 50.71 180.82 34.91 172.92 34.91 172.92 18.43"/><polygon class="cls-1" points="313.12 19.33 305.22 19.33 305.22 34.67 297.31 34.67 297.31 50 289.97 50 282.64 50 282.64 34.67 274.73 34.67 274.73 19.33 266.83 19.33 266.83 4 251.02 4 251.02 19.33 258.93 19.33 258.93 34.67 266.83 34.67 266.83 50 274.17 50 274.17 65.34 282.07 65.34 282.07 80.67 297.88 80.67 297.88 65.34 305.78 65.34 305.78 50 313.12 50 313.12 34.67 321.02 34.67 321.02 19.33 328.93 19.33 328.93 4 313.12 4 313.12 19.33"/><rect class="cls-2" x="5" width="46.83" height="14.43"/><rect class="cls-2" x="122.07" width="39.03" height="14.43"/><rect class="cls-2" x="122.07" y="62.25" width="39.03" height="14.43"/><rect class="cls-2" x="59.74" width="54.4" height="14.43"/><rect class="cls-2" x="192.24" width="54.4" height="14.43"/><rect class="cls-2" x="192.24" y="62.25" width="54.4" height="14.43"/><rect class="cls-2" x="59.74" y="62.25" width="54.4" height="14.43"/><rect class="cls-2" x="5" y="62.25" width="46.83" height="14.43"/><rect class="cls-2" x="20.02" y="14.43" width="15.81" height="47.82"/><rect class="cls-2" x="51.83" y="14.43" width="15.81" height="47.82"/><rect class="cls-2" x="122.04" y="14.43" width="15.81" height="47.82"/><rect class="cls-2" x="192.24" y="14.43" width="15.81" height="47.82"/><rect class="cls-2" x="340.83" width="54.4" height="14.43"/><rect class="cls-2" x="340.83" y="32.96" width="54.4" height="14.43"/><rect class="cls-2" x="340.83" y="62.87" width="54.4" height="14.43"/><rect class="cls-2" x="340.83" y="14.43" width="15.81" height="32.62"/><rect class="cls-2" x="379.42" y="32.96" width="15.81" height="29.91"/><rect class="cls-2" x="161.11" y="14.43" width="15.81" height="16.48"/><rect class="cls-2" x="169.01" y="30.9" width="15.81" height="15.81"/><rect class="cls-2" x="161.11" y="46.71" width="15.81" height="16.16"/><rect class="cls-2" x="255.02" width="15.81" height="15.33"/><rect class="cls-2" x="403.61" y="61.96" width="15.81" height="15.33"/><rect class="cls-2" x="262.92" y="15.33" width="15.81" height="15.33"/><rect class="cls-2" x="270.83" y="30.67" width="15.81" height="15.33"/><rect class="cls-2" x="278.17" y="46" width="15.81" height="15.33"/><rect class="cls-2" x="286.07" y="61.34" width="15.81" height="15.33"/><rect class="cls-2" x="317.12" width="15.81" height="15.33"/><rect class="cls-2" x="309.22" y="15.33" width="15.81" height="15.33"/><rect class="cls-2" x="301.31" y="30.67" width="15.81" height="15.33"/><rect class="cls-2" x="293.97" y="46" width="15.81" height="15.33"/><rect class="cls-2" x="286.07" y="61.34" width="15.81" height="15.33"/><path class="cls-3" d="M426.8,79.34V64h18.1V79.34Zm6.33-10.4v5.43h5.43V68.94Z"/><path class="cls-3" d="M448.51,79.34V64h15.38v5h-9v10.4Z"/><path class="cls-3" d="M484.25,64V86.88h-18.1v-5h11.76V79.34H466.16V64Zm-11.76,5v5.43h5.43V68.94Z"/><rect class="cls-2" x="403.61" y="61.96" width="15.81" height="15.33"/><path class="cls-2" d="M427.8,77.34V62h18.1V77.34Zm6.33-10.4v5.43h5.43V66.94Z"/><path class="cls-2" d="M449.51,77.34V62h15.38v5h-9v10.4Z"/><path class="cls-2" d="M485.25,62V84.88h-18.1v-5h11.76V77.34H467.16V62Zm-11.76,5v5.43h5.43V66.94Z"/></g></g></svg>